<?xml version="1.0" encoding="utf-8"?>
<!-- Generator: Adobe Illustrator 16.0.0, SVG Export Plug-In . SVG Version: 6.00 Build 0)  -->
<!DOCTYPE svg PUBLIC "-//W3C//DTD SVG 1.1//EN" "http://www.w3.org/Graphics/SVG/1.1/DTD/svg11.dtd">
<svg version="1.1" id="Layer_1" xmlns="http://www.w3.org/2000/svg" xmlns:xlink="http://www.w3.org/1999/xlink" x="0px" y="0px"
	 width="93.61px" height="64.643px" viewBox="0 0 93.61 64.643" enable-background="new 0 0 93.61 64.643" xml:space="preserve">
<g>
	<g>
		<path fill="#FFFFFF" d="M92.686,24.306c-6.606-1.501-13.104-2.667-19.543-3.537C71.127,9.195,60.142,0,46.889,0
			c-13.244,0-24.223,9.184-26.25,20.747c-6.495,0.872-13.049,2.044-19.714,3.56c-0.626,0.167-1.028,0.683-0.901,1.147
			c3.514,12.851,7.03,25.701,10.546,38.55c0.127,0.465,0.618,0.734,1.098,0.607c24.177-5.369,46.099-5.369,70.275,0
			c0.479,0.127,0.971-0.143,1.098-0.607c3.515-12.851,7.034-25.699,10.547-38.55C93.714,24.989,93.312,24.473,92.686,24.306z
			 M33.141,9.632c0.544-0.452,1.122-0.681,1.717-0.681c0.533,0,1.063,0.193,1.492,0.544c0.833,0.69,1.141,1.796,0.716,2.575
			l-0.072,0.132l-1.105-0.605l0.073-0.132c0.115-0.208-0.041-0.689-0.415-0.996c-0.145-0.119-0.38-0.26-0.684-0.26
			c-0.294,0-0.602,0.132-0.914,0.394c-0.341,0.282-0.604,0.999-0.437,1.575c0.2,0.689,0.953,0.924,1.549,1
			c0.103,0.015,0.213,0.021,0.332,0.021c1.118,0,3.114-0.594,6.104-1.816l0.136-0.056l0.504,1.159l-0.147,0.056
			c-0.179,0.068-0.383,0.148-0.607,0.235c-1.597,0.624-4.269,1.668-6.221,1.668c-0.095,0-0.182-0.005-0.26-0.016
			c-1.85-0.235-2.422-1.29-2.599-1.897C31.977,11.421,32.474,10.186,33.141,9.632z M27.781,41.299
			c-0.61,0.696-1.498,1.119-2.675,1.285c-1.63,0.23-2.444,0.355-4.069,0.629c-0.151,0.025-0.213,0.114-0.188,0.266
			c0.973,5.736,1.461,8.604,2.435,14.34c0.015,0.09-0.086,0.209-0.298,0.354c-0.212,0.146-0.521,0.253-0.928,0.326
			s-0.72,0.077-0.944,0.01c-0.223-0.068-0.347-0.16-0.37-0.282c-1.94-10.3-3.883-20.599-5.825-30.898
			c-0.045-0.242,0.098-0.395,0.432-0.457c3.14-0.583,4.715-0.837,7.873-1.273c2.479-0.342,3.871,0.797,4.165,3.333
			c0.442,3.816,0.665,5.725,1.107,9.541C28.634,39.664,28.391,40.605,27.781,41.299z M35.259,56.773
			c-0.876,0.072-1.326-0.021-1.352-0.299c-0.968-10.498-1.934-20.996-2.9-31.494c-0.011-0.122,0.095-0.246,0.322-0.375
			c0.226-0.128,0.626-0.22,1.199-0.267s0.991-0.023,1.251,0.064c0.261,0.089,0.396,0.194,0.405,0.316
			c0.771,10.484,1.539,20.967,2.312,31.452C36.521,56.508,36.107,56.703,35.259,56.773z M36.836,16.429
			c0.9-2.3,5.676-3.284,6.218-3.389l0.228,1.178c-1.795,0.348-4.83,1.375-5.329,2.649c-0.23,0.585-0.206,1.139,0.064,1.446
			c0.238,0.271,0.659,0.347,1.187,0.214c0.351-0.087,0.713-0.458,0.762-0.778c0.012-0.082,0.05-0.331-0.403-0.605l0.621-1.026
			c0.724,0.438,1.076,1.098,0.969,1.811c-0.121,0.8-0.834,1.558-1.658,1.763c-0.263,0.066-0.518,0.098-0.761,0.098
			c-0.655,0-1.224-0.235-1.619-0.685C36.539,18.449,36.435,17.448,36.836,16.429z M47.673,56.07
			c-2.835-0.018-4.252,0.01-7.084,0.135c-0.247,0.012-0.377-0.104-0.389-0.351c-0.491-10.485-0.986-20.971-1.477-31.456
			c-0.004-0.093,0.117-0.198,0.365-0.316c0.248-0.119,0.643-0.19,1.184-0.211c0.506-0.019,0.898,0.024,1.171,0.123
			c0.272,0.099,0.411,0.224,0.415,0.377c0.282,9.692,0.56,19.385,0.836,29.078c0.006,0.216,0.079,0.32,0.219,0.316
			c1.909-0.053,2.863-0.062,4.773-0.05c0.279,0.002,0.416,0.404,0.409,1.204C48.088,55.689,47.948,56.072,47.673,56.07z
			 M44.566,13.84c0,0-2.258-2.698-3.389-4.56c-0.043-0.07-0.141-0.226-0.123-0.292c0.062-0.072,0.172-0.098,0.238-0.106
			c1.469-0.142,1.887-0.047,2.441,0.362c0.467,0.342,1.73,1.663,1.73,1.663s4.014-0.945,4.104-0.956
			c-0.148-0.431-4.287-3.721-4.914-4.695c-0.059-0.175-0.057-0.19,0.203-0.168c0.449,0.05,2.031,0.294,3.27,0.926
			c1.383,0.707,5.545,2.914,5.645,2.99c0.998-0.071,3.189-0.557,4.635-0.708c0.865,0.184,3.441,0.612,2.24,1.935
			c-0.791,0.868-4.684,1.68-4.684,1.68c-4.711,1.003-6.281,1.286-7.092,1.383C48.426,13.349,44.566,13.84,44.566,13.84z
			 M63.666,28.653c-0.971,9.666-1.458,14.5-2.429,24.167c-0.139,1.378-0.548,2.351-1.212,2.921c-0.665,0.572-1.581,0.805-2.76,0.717
			c-1.069-0.08-1.605-0.114-2.676-0.174c-1.18-0.065-2.063-0.401-2.664-1.023c-0.6-0.623-0.883-1.607-0.843-2.962
			c0.287-9.711,0.432-14.565,0.719-24.275c0.041-1.384,0.442-2.383,1.22-2.985c0.776-0.602,1.899-0.874,3.349-0.793
			c1.314,0.073,1.974,0.116,3.287,0.214c1.448,0.108,2.518,0.505,3.197,1.172S63.802,27.306,63.666,28.653z M80.831,28.545
			c-0.067,0.333-0.163,0.603-0.291,0.813c-0.128,0.209-0.271,0.297-0.436,0.265c-1.812-0.361-2.722-0.529-4.539-0.841
			c-0.165-0.028-0.261,0.047-0.292,0.229c-1.633,9.59-3.261,19.18-4.892,28.769c-0.025,0.152-0.211,0.247-0.551,0.283
			c-0.341,0.036-0.609,0.038-0.799,0.008c-0.217-0.034-0.479-0.099-0.783-0.192c-0.307-0.094-0.446-0.217-0.423-0.369
			c1.461-9.664,2.923-19.326,4.386-28.99c0.027-0.183-0.076-0.291-0.307-0.325c-1.803-0.269-2.703-0.392-4.511-0.612
			c-0.397-0.048-0.553-0.454-0.462-1.218c0.094-0.795,0.324-1.17,0.694-1.125c5.176,0.63,7.758,1.044,12.887,2.066
			c0.232,0.046,0.362,0.181,0.386,0.405C80.924,27.936,80.898,28.214,80.831,28.545z M59.131,26.78
			c-1.036-0.075-1.553-0.108-2.59-0.168c-0.532-0.03-0.94,0.116-1.223,0.441s-0.434,0.734-0.457,1.226
			c-0.462,9.648-0.694,14.471-1.156,24.12c-0.021,0.431,0.075,0.791,0.285,1.078c0.21,0.288,0.537,0.442,0.983,0.468
			c0.87,0.051,1.305,0.079,2.174,0.143c0.445,0.031,0.796-0.109,1.047-0.43c0.25-0.32,0.396-0.724,0.437-1.215
			c0.79-9.628,1.186-14.442,1.976-24.069c0.035-0.429-0.061-0.792-0.287-1.088C60.094,26.99,59.695,26.821,59.131,26.78z
			 M24.337,29.312c-0.053-0.396-0.238-0.72-0.558-0.972c-0.32-0.251-0.749-0.339-1.277-0.263c-1.526,0.22-2.286,0.34-3.808,0.595
			c-0.231,0.039-0.333,0.134-0.308,0.285c0.791,4.662,1.186,6.992,1.977,11.653c0.036,0.213,0.147,0.304,0.33,0.272
			c1.448-0.243,2.172-0.356,3.625-0.565c0.521-0.075,0.873-0.286,1.061-0.639c0.187-0.352,0.246-0.802,0.172-1.351
			C25.065,34.723,24.822,32.918,24.337,29.312z"/>
	</g>
</g>
</svg>
